<svg xmlns="http://www.w3.org/2000/svg"
	xmlns:xlink="http://www.w3.org/1999/xlink"
	viewBox="36 36 277 486"
	width="347.854" height="562.742">
<g>
<rect x="36" y="36" width="277" height="486" fill="red" stroke="none"/>
<path fill="white" stroke="none" d="M 119.927 120.816C 101.927 148.816 110.593 190.816 113.26 200.816C 115.882 210.648 121.26 217.482 123.26 217.482C 127.26 221.482 129.927 222.816 131.927 228.816C 139.927 238.816 151.927 242.816 163.927 244.816C 187.927 244.816 211.927 252.816 233.927 238.816C 243.927 230.816 253.927 220.816 259.927 208.816C 269.927 184.816 265.927 158.816 265.927 134.816"/>
<path fill="#bfbfbf" stroke="none" d="M 119.26 122.816C 119.26 122.816 141.26 136.816 152.593 145.482C 163.927 154.149 203.927 156.149 219.26 154.816C 234.593 153.482 259.927 139.482 259.927 139.482C 259.927 139.482 255.26 113.482 255.26 98.8157C 255.26 84.149 249.927 52.8157 249.927 52.8157L 202.593 71.4824L 148.593 40.149L 143.26 40.8157L 119.927 107.482L 119.26 122.816z"/>
<path fill="#3f3f3f" stroke="none" d="M 197.927 154.149L 195.26 168.149C 195.26 168.149 225.26 169.482 235.26 166.149C 245.26 162.816 241.927 163.482 241.927 163.482L 240.593 172.816L 219.927 196.816L 196.593 214.816L 223.927 217.482L 223.26 227.482L 179.927 229.482L 173.26 246.816C 173.26 246.816 231.927 244.816 239.927 234.149C 247.927 223.482 267.927 196.816 267.26 180.149C 266.593 163.482 263.26 138.149 263.26 138.149C 263.26 138.149 251.927 151.482 243.927 153.482C 235.927 155.482 197.927 154.149 197.927 154.149z"/>
<path fill="#3f3f3f" stroke="none" d="M 147.927 44.8157L 187.927 98.8157L 247.26 54.149L 199.26 72.8157L 147.927 44.8157z"/>
<path fill="#3f3f3f" stroke="none" d="M 251.26 82.8157L 220.593 138.149C 220.593 138.149 231.927 139.482 238.593 137.482C 245.26 135.482 256.593 130.816 256.593 130.816L 255.26 81.4824L 251.26 82.8157z"/>
<path fill="#3f3f3f" stroke="none" d="M 116.593 120.149L 117.927 112.149C 117.927 112.149 135.38 116.231 147.927 124.816C 160.593 133.482 169.26 134.816 169.26 134.816L 152.468 145.295C 152.468 145.295 143.26 136.816 137.26 130.816C 131.26 124.816 116.593 120.149 116.593 120.149z"/>

<path fill="none" stroke-width="8" stroke="#000000" d="M 119.927 120.816C 101.927 148.816 110.593 190.816 113.26 200.816C 115.882 210.648 121.26 217.482 123.26 217.482C 127.26 221.482 129.927 222.816 131.927 228.816C 139.927 238.816 151.927 242.816 163.927 244.816C 187.927 244.816 211.927 252.816 233.927 238.816C 243.927 230.816 253.927 220.816 259.927 208.816C 269.927 184.816 265.927 158.816 265.927 134.816"/>
<path fill="none" stroke-width="8" stroke="#000000" d="M 139.677 168.691C 151.677 170.691 161.677 178.691 173.677 178.691C 191.677 180.691 209.677 182.691 227.677 178.691C 233.677 176.691 239.677 176.691 241.677 170.691"/>
<path fill="none" stroke-width="8" stroke="#000000" d="M 159.677 180.691C 159.677 186.691 159.677 192.691 159.677 198.691"/>
<path fill="none" stroke-width="8" stroke="#000000" d="M 215.677 184.691C 215.677 188.691 215.677 194.691 215.677 198.691"/>
<path fill="none" stroke-width="8" stroke="#000000" d="M 151.677 218.691C 175.677 218.691 197.677 218.691 221.677 218.691"/>
<path fill="none" stroke-width="8" stroke="#000000" d="M 163.927 244.816C 155.927 268.816 155.927 288.816 151.927 310.816C 147.927 336.816 141.927 360.816 141.927 384.816"/>
<path fill="none" stroke-width="8" stroke="#000000" d="M 141.927 384.816C 167.927 422.816 191.927 468.816 213.927 508.816"/>
<path fill="none" stroke-width="8" stroke="#000000" d="M 41.9267 520.816C 65.9267 468.816 101.927 426.816 141.927 384.816"/>
<path fill="none" stroke-width="8" stroke="#000000" d="M 45.9267 304.816C 79.9267 294.816 122.927 284.816 156.927 274.816"/>
<path fill="none" stroke-width="8" stroke="#000000" d="M 159.927 278.816C 163.927 278.816 167.927 276.816 171.927 278.816C 191.927 290.816 235.927 306.816 255.927 318.816"/>
<path fill="#bfbfbf" stroke-width="8" stroke="#000000" d="M 139.927 270.816C 139.927 332.945 125.927 456.816 125.927 456.816C 125.927 456.816 109.927 366.816 117.927 320.816C 117.927 320.816 123.927 320.816 127.927 320.816C 119.927 312.816 102.927 305.316 110.927 297.316C 118.927 285.316 123.927 262.816 139.927 264.816C 139.927 264.816 139.927 268.816 139.927 270.816z"/>
<path fill="#bfbfbf" stroke-width="8" stroke="#000000" d="M 181.927 276.816C 181.927 344.845 175.927 480.816 175.927 480.816C 175.927 480.816 195.927 373.316 207.927 321.316C 205.927 321.316 189.927 320.816 187.927 320.816C 193.927 316.816 202.927 306.816 210.927 304.816C 210.927 304.816 187.427 267.816 182.427 267.816C 182.427 267.816 181.927 274.816 181.927 276.816z"/>
<path fill="#7f7f7f" stroke-width="8" stroke="#000000" d="M 155.427 296.316L 165.927 281.816L 175.927 295.816L 167.927 309.816L 155.427 296.316z"/>
<path fill="#7f7f7f" stroke-width="8" stroke="#000000" d="M 164.927 307.816L 158.427 370.816L 169.927 404.816L 181.927 376.816L 170.927 307.316L 164.927 307.816z"/>
<path fill="none" stroke-width="8" stroke="#000000" d="M 85.9267 120.816C 93.9267 120.816 111.927 118.816 119.927 120.816C 137.927 126.816 147.927 144.816 161.927 150.816C 185.927 158.816 213.927 156.816 239.927 152.816C 251.927 150.816 255.927 138.816 265.927 134.816C 277.927 130.816 291.927 130.816 305.927 130.816L 305.927 132.816"/>
<path fill="none" stroke-width="8" stroke="#000000" d="M 117.26 115.482C 125.491 94.9064 134.002 62.664 143.927 42.8157C 145.927 42.8157 151.927 40.8157 153.927 42.8157C 167.927 52.8157 181.927 64.8157 195.927 70.8157C 213.927 78.8157 231.927 56.8157 249.927 52.8157C 257.927 80.8157 251.927 108.816 259.927 136.816"/>
</g>
</svg>
